<?xml version="1.0" encoding="UTF-8"?>
<svg width="700pt" height="700pt" version="1.1" viewBox="0 0 700 700" xmlns="http://www.w3.org/2000/svg" xmlns:xlink="http://www.w3.org/1999/xlink">
 <defs>
  <symbol id="w" overflow="visible">
   <path d="m3.0469-0.1875c-0.15625 0.085938-0.32422 0.14844-0.5 0.1875-0.16797 0.039062-0.34375 0.0625-0.53125 0.0625-0.55469 0-0.99219-0.14844-1.3125-0.45312-0.32422-0.3125-0.48438-0.73438-0.48438-1.2656s0.16016-0.94531 0.48438-1.25c0.32031-0.3125 0.75781-0.46875 1.3125-0.46875 0.1875 0 0.36328 0.023438 0.53125 0.0625 0.17578 0.042969 0.34375 0.10547 0.5 0.1875v0.6875c-0.15625-0.11328-0.3125-0.19141-0.46875-0.23438-0.15625-0.050781-0.32031-0.078125-0.48438-0.078125-0.30469 0-0.54297 0.10156-0.71875 0.29688-0.17969 0.1875-0.26562 0.45312-0.26562 0.79688s0.085937 0.61719 0.26562 0.8125c0.17578 0.1875 0.41406 0.28125 0.71875 0.28125 0.16406 0 0.32812-0.019531 0.48438-0.0625 0.15625-0.050781 0.3125-0.13281 0.46875-0.25z"/>
  </symbol>
  <symbol id="b" overflow="visible">
   <path d="m2.2344-1.8125c-0.074219-0.03125-0.14844-0.050781-0.21875-0.0625-0.0625-0.019531-0.13281-0.03125-0.20312-0.03125-0.21094 0-0.37109 0.070312-0.48438 0.20312-0.10547 0.125-0.15625 0.3125-0.15625 0.5625v1.1406h-0.79688v-2.4844h0.79688v0.40625c0.10156-0.16406 0.22266-0.28516 0.35938-0.35938 0.13281-0.070312 0.28906-0.10938 0.46875-0.10938h0.09375c0.03125 0 0.078125 0.007813 0.14062 0.015625z"/>
  </symbol>
  <symbol id="c" overflow="visible">
   <path d="m2.8594-1.25v0.21875h-1.8594c0.019531 0.1875 0.085938 0.32812 0.20312 0.42188 0.11328 0.09375 0.27344 0.14062 0.48438 0.14062 0.16406 0 0.33594-0.019531 0.51562-0.0625 0.17578-0.050781 0.35938-0.12891 0.54688-0.23438v0.60938c-0.1875 0.074219-0.375 0.125-0.5625 0.15625-0.1875 0.039062-0.375 0.0625-0.5625 0.0625-0.46094 0-0.8125-0.11328-1.0625-0.34375-0.24219-0.22656-0.35938-0.54688-0.35938-0.95312s0.11719-0.72266 0.35938-0.95312c0.25-0.23828 0.58594-0.35938 1.0156-0.35938 0.38281 0 0.69141 0.12109 0.92188 0.35938 0.23828 0.23047 0.35938 0.54297 0.35938 0.9375zm-0.8125-0.26562c0-0.14453-0.046875-0.26562-0.14062-0.35938-0.085938-0.09375-0.19922-0.14062-0.34375-0.14062-0.14844 0-0.27344 0.042969-0.375 0.125-0.09375 0.085937-0.15234 0.21094-0.17188 0.375z"/>
  </symbol>
  <symbol id="a" overflow="visible">
   <path d="m1.5-1.125c-0.16797 0-0.29297 0.03125-0.375 0.09375-0.085938 0.054688-0.125 0.13672-0.125 0.25 0 0.09375 0.03125 0.17188 0.09375 0.23438 0.070312 0.054687 0.16406 0.078125 0.28125 0.078125 0.15625 0 0.28125-0.050781 0.375-0.15625 0.10156-0.10156 0.15625-0.23828 0.15625-0.40625v-0.09375zm1.2031-0.29688v1.4219h-0.79688v-0.375c-0.10547 0.15625-0.22656 0.27344-0.35938 0.34375-0.13672 0.0625-0.29688 0.09375-0.48438 0.09375-0.26172 0-0.46875-0.070312-0.625-0.21875-0.15625-0.15625-0.23438-0.35156-0.23438-0.59375 0-0.28906 0.097656-0.50391 0.29688-0.64062 0.19531-0.13281 0.50781-0.20312 0.9375-0.20312h0.46875v-0.0625c0-0.125-0.054688-0.21094-0.15625-0.26562-0.09375-0.0625-0.24609-0.09375-0.45312-0.09375-0.16797 0-0.32422 0.015625-0.46875 0.046875-0.14844 0.03125-0.28906 0.085938-0.42188 0.15625v-0.60938c0.17578-0.039063 0.34766-0.070313 0.51562-0.09375 0.17578-0.019531 0.34766-0.03125 0.51562-0.03125 0.44531 0 0.76953 0.089844 0.96875 0.26562 0.19531 0.17969 0.29688 0.46484 0.29688 0.85938z"/>
  </symbol>
  <symbol id="d" overflow="visible">
   <path d="m1.25-3.1875v0.70312h0.8125v0.5625h-0.8125v1.0625c0 0.11719 0.019531 0.19531 0.0625 0.23438 0.050781 0.042969 0.14453 0.0625 0.28125 0.0625h0.40625v0.5625h-0.6875c-0.3125 0-0.53906-0.0625-0.67188-0.1875-0.125-0.13281-0.1875-0.35938-0.1875-0.67188v-1.0625h-0.39062v-0.5625h0.39062v-0.70312z"/>
  </symbol>
  <symbol id="j" overflow="visible">
   <path d="m2.0781-2.125v-1.3281h0.79688v3.4531h-0.79688v-0.35938c-0.11719 0.14844-0.24219 0.25781-0.375 0.32812-0.125 0.0625-0.27734 0.09375-0.45312 0.09375-0.30469 0-0.55469-0.11719-0.75-0.35938-0.19922-0.25-0.29688-0.5625-0.29688-0.9375 0-0.38281 0.097656-0.69531 0.29688-0.9375 0.19531-0.25 0.44531-0.375 0.75-0.375 0.17578 0 0.32812 0.039063 0.45312 0.10938 0.13281 0.0625 0.25781 0.16797 0.375 0.3125zm-0.53125 1.6094c0.17578 0 0.30469-0.0625 0.39062-0.1875 0.09375-0.125 0.14062-0.30078 0.14062-0.53125 0-0.23828-0.046875-0.42188-0.14062-0.54688-0.085938-0.125-0.21484-0.1875-0.39062-0.1875-0.16797 0-0.29688 0.0625-0.39062 0.1875-0.085938 0.125-0.125 0.30859-0.125 0.54688 0 0.23047 0.039062 0.40625 0.125 0.53125 0.09375 0.125 0.22266 0.1875 0.39062 0.1875z"/>
  </symbol>
  <symbol id="i" overflow="visible">
   <path d="m1.7031-0.51562c0.16406 0 0.29688-0.0625 0.39062-0.1875s0.14062-0.30078 0.14062-0.53125c0-0.23828-0.046875-0.42188-0.14062-0.54688s-0.22656-0.1875-0.39062-0.1875c-0.16797 0-0.29688 0.0625-0.39062 0.1875s-0.14062 0.30859-0.14062 0.54688c0 0.23047 0.046875 0.40625 0.14062 0.53125s0.22266 0.1875 0.39062 0.1875zm-0.53125-1.6094c0.11328-0.14453 0.23438-0.25 0.35938-0.3125 0.13281-0.070312 0.28906-0.10938 0.46875-0.10938 0.30078 0 0.55078 0.125 0.75 0.375 0.19531 0.24219 0.29688 0.55469 0.29688 0.9375 0 0.375-0.10156 0.6875-0.29688 0.9375-0.19922 0.24219-0.44922 0.35938-0.75 0.35938-0.17969 0-0.33594-0.03125-0.46875-0.09375-0.125-0.070312-0.24609-0.17969-0.35938-0.32812v0.35938h-0.79688v-3.4531h0.79688z"/>
  </symbol>
  <symbol id="f" overflow="visible">
   <path d="m0.0625-2.4844h0.78125l0.67188 1.6875 0.57812-1.6875h0.78125l-1.0312 2.7188c-0.11719 0.28125-0.24219 0.47266-0.375 0.57812-0.13672 0.11328-0.32031 0.17188-0.54688 0.17188h-0.46875v-0.53125h0.25c0.13281 0 0.23438-0.023437 0.29688-0.0625 0.0625-0.042969 0.10938-0.11719 0.14062-0.21875l0.015625-0.078125z"/>
  </symbol>
  <symbol id="h" overflow="visible">
   <path d="m0.15625-2.4844h0.78125l0.40625 1.7188 0.42188-1.7188h0.67188l0.40625 1.6875 0.42188-1.6875h0.78125l-0.65625 2.4844h-0.875l-0.42188-1.7031-0.40625 1.7031h-0.875z"/>
  </symbol>
  <symbol id="v" overflow="visible">
   <path d="m0.375-2.4844h0.79688v2.4844h-0.79688zm0-0.96875h0.79688v0.64062h-0.79688z"/>
  </symbol>
  <symbol id="g" overflow="visible">
   <path d="m0.375-2.4844h0.79688v2.4375c0 0.33203-0.078125 0.58594-0.23438 0.76562-0.15625 0.17578-0.39062 0.26562-0.70312 0.26562h-0.39062v-0.53125h0.14062c0.15625 0 0.25781-0.039063 0.3125-0.10938 0.050781-0.0625 0.078125-0.19531 0.078125-0.39062zm0-0.96875h0.79688v0.64062h-0.79688z"/>
  </symbol>
  <symbol id="u" overflow="visible">
   <path d="m1.6719-2.6094-0.9375 1.3906h0.9375zm-0.14062-0.70312h0.95312v2.0938h0.46875v0.60938h-0.46875v0.60938h-0.8125v-0.60938h-1.4688v-0.73438z"/>
  </symbol>
  <symbol id="t" overflow="visible">
   <path d="m1.6406-1.6406c-0.14844 0-0.25781 0.054687-0.32812 0.15625-0.074219 0.09375-0.10938 0.24219-0.10938 0.4375 0 0.1875 0.035156 0.33594 0.10938 0.4375 0.070312 0.09375 0.17969 0.14062 0.32812 0.14062 0.15625 0 0.26953-0.046875 0.34375-0.14062 0.070313-0.10156 0.10938-0.25 0.10938-0.4375 0-0.19531-0.039062-0.34375-0.10938-0.4375-0.074219-0.10156-0.1875-0.15625-0.34375-0.15625zm1.0625-1.5938v0.625c-0.14844-0.070313-0.28125-0.125-0.40625-0.15625-0.11719-0.03125-0.23438-0.046875-0.35938-0.046875-0.25 0-0.44922 0.074219-0.59375 0.21875-0.14844 0.13672-0.23047 0.34375-0.25 0.625 0.10156-0.070312 0.20703-0.125 0.3125-0.15625 0.11328-0.039062 0.23828-0.0625 0.375-0.0625 0.34375 0 0.61719 0.10156 0.82812 0.29688 0.20703 0.19922 0.3125 0.46094 0.3125 0.78125 0 0.35547-0.12109 0.64062-0.35938 0.85938-0.23047 0.21094-0.53906 0.3125-0.92188 0.3125-0.4375 0-0.77734-0.14453-1.0156-0.4375-0.23047-0.28906-0.34375-0.70312-0.34375-1.2344 0-0.55078 0.13281-0.98438 0.40625-1.2969 0.28125-0.3125 0.66016-0.46875 1.1406-0.46875 0.15625 0 0.30078 0.015625 0.4375 0.046875 0.14453 0.023437 0.28906 0.054687 0.4375 0.09375z"/>
  </symbol>
  <symbol id="s" overflow="visible">
   <path d="m1.5781-1.4844c-0.15625 0-0.28125 0.046875-0.375 0.14062-0.085937 0.085938-0.125 0.20312-0.125 0.35938 0 0.16797 0.039063 0.29688 0.125 0.39062 0.09375 0.085938 0.21875 0.125 0.375 0.125 0.16406 0 0.28906-0.039062 0.375-0.125 0.082031-0.09375 0.125-0.22266 0.125-0.39062 0-0.15625-0.042969-0.27344-0.125-0.35938-0.085937-0.09375-0.21094-0.14062-0.375-0.14062zm-0.625-0.28125c-0.19922-0.0625-0.35156-0.15625-0.45312-0.28125-0.10547-0.125-0.15625-0.28125-0.15625-0.46875 0-0.28125 0.10156-0.49219 0.3125-0.64062 0.21875-0.14453 0.52344-0.21875 0.92188-0.21875 0.40625 0 0.71094 0.074219 0.92188 0.21875 0.20703 0.14844 0.3125 0.35938 0.3125 0.64062 0 0.1875-0.054688 0.34375-0.15625 0.46875-0.10547 0.125-0.25781 0.21875-0.45312 0.28125 0.21875 0.0625 0.38281 0.16797 0.5 0.3125 0.11328 0.13672 0.17188 0.30859 0.17188 0.51562 0 0.33594-0.10938 0.58594-0.32812 0.75-0.21094 0.16797-0.53125 0.25-0.96875 0.25-0.42969 0-0.75-0.082031-0.96875-0.25-0.21875-0.16406-0.32812-0.41406-0.32812-0.75 0-0.20703 0.054688-0.37891 0.17188-0.51562 0.11328-0.14453 0.28125-0.25 0.5-0.3125zm0.20312-0.65625c0 0.125 0.035156 0.22656 0.10938 0.29688 0.070313 0.074219 0.17578 0.10938 0.3125 0.10938 0.13281 0 0.23828-0.035156 0.3125-0.10938 0.070313-0.070312 0.10938-0.17188 0.10938-0.29688 0-0.13281-0.039062-0.23828-0.10938-0.3125-0.074219-0.070313-0.17969-0.10938-0.3125-0.10938-0.13672 0-0.24219 0.039062-0.3125 0.10938-0.074219 0.074219-0.10938 0.17969-0.10938 0.3125z"/>
  </symbol>
  <symbol id="r" overflow="visible">
   <path d="m2.0156-3.4531v0.51562h-0.4375c-0.11719 0-0.19531 0.023438-0.23438 0.0625-0.042969 0.042969-0.0625 0.11719-0.0625 0.21875v0.17188h0.67188v0.5625h-0.67188v1.9219h-0.79688v-1.9219h-0.39062v-0.5625h0.39062v-0.17188c0-0.26953 0.070313-0.46875 0.21875-0.59375 0.15625-0.13281 0.39062-0.20312 0.70312-0.20312z"/>
  </symbol>
  <symbol id="e" overflow="visible">
   <path d="m1.5625-1.9844c-0.17969 0-0.3125 0.070313-0.40625 0.20312-0.085938 0.125-0.125 0.30859-0.125 0.54688 0 0.23047 0.039062 0.41406 0.125 0.54688 0.09375 0.125 0.22656 0.1875 0.40625 0.1875 0.17578 0 0.30469-0.0625 0.39062-0.1875 0.09375-0.13281 0.14062-0.31641 0.14062-0.54688 0-0.23828-0.046875-0.42188-0.14062-0.54688-0.085937-0.13281-0.21484-0.20312-0.39062-0.20312zm0-0.5625c0.42578 0 0.75781 0.11719 1 0.34375 0.23828 0.23047 0.35938 0.55469 0.35938 0.96875 0 0.40625-0.12109 0.72656-0.35938 0.95312-0.24219 0.23047-0.57422 0.34375-1 0.34375-0.42969 0-0.76172-0.11328-1-0.34375-0.24219-0.22656-0.35938-0.54688-0.35938-0.95312 0-0.41406 0.11719-0.73828 0.35938-0.96875 0.23828-0.22656 0.57031-0.34375 1-0.34375z"/>
  </symbol>
  <symbol id="q" overflow="visible">
   <path d="m2.6875-2.0781c0.10156-0.14453 0.22266-0.25781 0.35938-0.34375 0.13281-0.082031 0.28516-0.125 0.45312-0.125 0.28125 0 0.49219 0.089844 0.64062 0.26562 0.15625 0.17969 0.23438 0.43359 0.23438 0.76562v1.5156h-0.79688v-1.2969-0.0625-0.09375c0-0.16406-0.027344-0.28906-0.078125-0.375-0.054688-0.082031-0.13672-0.125-0.25-0.125-0.14844 0-0.26172 0.0625-0.34375 0.1875-0.085938 0.125-0.125 0.30859-0.125 0.54688v1.2188h-0.79688v-1.2969c0-0.26953-0.027344-0.44531-0.078125-0.53125-0.042969-0.082031-0.125-0.125-0.25-0.125-0.15625 0-0.27734 0.0625-0.35938 0.1875-0.085937 0.125-0.125 0.30859-0.125 0.54688v1.2188h-0.79688v-2.4844h0.79688v0.35938c0.10156-0.13281 0.21875-0.23828 0.34375-0.3125 0.125-0.070312 0.26562-0.10938 0.42188-0.10938 0.16406 0 0.3125 0.042969 0.4375 0.125 0.13281 0.085937 0.23828 0.19922 0.3125 0.34375z"/>
  </symbol>
  <symbol id="p" overflow="visible">
   <path d="m2.875-1.5156v1.5156h-0.79688v-1.1562c0-0.21875-0.007813-0.36328-0.015625-0.4375-0.011719-0.082031-0.027344-0.14453-0.046875-0.1875-0.03125-0.050781-0.074219-0.09375-0.125-0.125-0.054687-0.03125-0.11719-0.046875-0.1875-0.046875-0.16797 0-0.29688 0.070313-0.39062 0.20312-0.09375 0.125-0.14062 0.30469-0.14062 0.53125v1.2188h-0.79688v-3.4531h0.79688v1.3281c0.125-0.14453 0.25391-0.25 0.39062-0.3125 0.13281-0.070312 0.28125-0.10938 0.4375-0.10938 0.28906 0 0.50781 0.089844 0.65625 0.26562 0.14453 0.17969 0.21875 0.43359 0.21875 0.76562z"/>
  </symbol>
  <symbol id="o" overflow="visible">
   <path d="m0.42188-3.3125h0.95312l1.2031 2.2656v-2.2656h0.8125v3.3125h-0.95312l-1.2031-2.2812v2.2812h-0.8125z"/>
  </symbol>
  <symbol id="n" overflow="visible">
   <path d="m0.35938-0.96875v-1.5156h0.79688v0.25 0.51562 0.39062c0 0.19922 0.003906 0.34375 0.015625 0.4375 0.007813 0.085937 0.023437 0.14844 0.046875 0.1875 0.03125 0.054687 0.070312 0.09375 0.125 0.125 0.050781 0.03125 0.11328 0.046875 0.1875 0.046875 0.16406 0 0.29688-0.0625 0.39062-0.1875 0.09375-0.13281 0.14062-0.31641 0.14062-0.54688v-1.2188h0.79688v2.4844h-0.79688v-0.35938c-0.125 0.14844-0.25781 0.25781-0.39062 0.32812-0.125 0.0625-0.27344 0.09375-0.4375 0.09375-0.28125 0-0.5-0.085938-0.65625-0.26562-0.14844-0.17578-0.21875-0.42969-0.21875-0.76562z"/>
  </symbol>
  <symbol id="m" overflow="visible">
   <path d="m2.875-1.5156v1.5156h-0.79688v-1.1562c0-0.21875-0.007813-0.36328-0.015625-0.4375-0.011719-0.082031-0.027344-0.14453-0.046875-0.1875-0.03125-0.050781-0.074219-0.09375-0.125-0.125-0.054687-0.03125-0.11719-0.046875-0.1875-0.046875-0.16797 0-0.29688 0.070313-0.39062 0.20312-0.09375 0.125-0.14062 0.30469-0.14062 0.53125v1.2188h-0.79688v-2.4844h0.79688v0.35938c0.125-0.14453 0.25391-0.25 0.39062-0.3125 0.13281-0.070312 0.28125-0.10938 0.4375-0.10938 0.28906 0 0.50781 0.089844 0.65625 0.26562 0.14453 0.17969 0.21875 0.43359 0.21875 0.76562z"/>
  </symbol>
  <symbol id="l" overflow="visible">
   <path d="m0.42188-3.3125h1.4219c0.41406 0 0.73438 0.09375 0.95312 0.28125 0.22656 0.1875 0.34375 0.45312 0.34375 0.79688s-0.11719 0.60938-0.34375 0.79688c-0.21875 0.1875-0.53906 0.28125-0.95312 0.28125h-0.57812v1.1562h-0.84375zm0.84375 0.625v0.92188h0.48438c0.16406 0 0.28906-0.039063 0.375-0.125 0.09375-0.082031 0.14062-0.19531 0.14062-0.34375 0-0.14453-0.046875-0.25391-0.14062-0.32812-0.085938-0.082031-0.21094-0.125-0.375-0.125z"/>
  </symbol>
  <symbol id="k" overflow="visible">
   <path d="m2.3906-2.4062v0.64062c-0.10547-0.070313-0.21484-0.125-0.32812-0.15625-0.10547-0.039063-0.21484-0.0625-0.32812-0.0625-0.23047 0-0.40625 0.070313-0.53125 0.20312-0.11719 0.125-0.17188 0.30859-0.17188 0.54688 0 0.23047 0.054688 0.41406 0.17188 0.54688 0.125 0.125 0.30078 0.1875 0.53125 0.1875 0.11328 0 0.22656-0.015625 0.34375-0.046875 0.11328-0.039063 0.21875-0.097656 0.3125-0.17188v0.64062c-0.125 0.054688-0.25 0.085938-0.375 0.10938-0.125 0.019531-0.25781 0.03125-0.39062 0.03125-0.44922 0-0.79688-0.11328-1.0469-0.34375-0.25-0.22656-0.375-0.54688-0.375-0.95312 0-0.41406 0.125-0.73828 0.375-0.96875 0.25-0.22656 0.59766-0.34375 1.0469-0.34375 0.13281 0 0.26562 0.011719 0.39062 0.03125 0.125 0.023437 0.25 0.058594 0.375 0.10938z"/>
  </symbol>
 </defs>
 <g>
  <path d="m585.38 509.01c0 28.227-22.766 50.992-50.992 50.992h-368.78c-28.227 0-50.992-22.766-50.992-50.992v-330.54c0.91016-20.941 20.941-38.242 41.887-38.242h41.887v-132.03c0-4.5547 3.6406-8.1953 8.1953-8.1953h286.83c4.5547 0 8.1953 3.6406 8.1953 8.1953v132.03h41.887c20.031 0 40.977 17.301 41.887 38.242v330.54zm-235.84 34.602h184.84c19.121 0 34.602-15.48 34.602-34.602v-241.3c0-19.121-15.48-34.602-34.602-34.602h-25.496c-9.1055 0-18.211 5.4648-20.941 14.57-26.406 60.098-81.953 91.059-138.41 91.059-55.543 0-112-30.961-137.5-91.059-2.7305-9.1055-11.836-14.57-20.941-14.57h-25.496c-19.121 0-34.602 15.48-34.602 34.602v241.3c0 19.121 15.48 34.602 34.602 34.602zm0-221.27c30.047 0 60.098-10.016 84.684-30.047-23.676-20.031-53.723-30.047-84.684-30.047-30.047 0-60.098 10.016-83.773 30.047 24.586 20.031 54.633 30.047 83.773 30.047zm0-76.488c34.602 0 69.203 10.926 96.52 34.602 10.926-10.926 20.031-24.586 26.406-39.156 5.4648-16.391 18.211-24.586 35.512-24.586-3.6406-4.5547-7.2852-7.2852-12.746-7.2852h-290.47c-5.4648 0-9.1055 2.7305-12.746 7.2852 16.391 0 30.047 8.1953 35.512 24.586 6.375 14.57 15.48 28.227 26.406 39.156 26.406-23.676 61.008-34.602 95.609-34.602zm0-52.812h145.69c14.57 0 28.227 9.1055 32.781 23.676h6.375c12.746 0 25.496 5.4648 34.602 13.66v-49.172c0-13.66-11.836-24.586-25.496-24.586h-58.277v-140.23h-270.44v140.23h-58.277c-13.66 0-25.496 10.926-25.496 24.586v49.172c9.1055-8.1953 21.855-13.66 34.602-13.66h6.375c4.5547-14.57 17.301-23.676 32.781-23.676zm-251.32 0.91016c-19.121 0-40.977 3.6406-40.977 28.227v39.156c0 25.496 21.855 28.227 40.977 28.227zm208.52 99.254c-3.6406 1.8203-9.1055 0-10.926-3.6406-1.8203-4.5547 0-9.1055 4.5547-10.926 3.6406-2.7305 9.1055-0.91016 10.926 3.6406 1.8203 4.5547 0 9.1055-4.5547 10.926zm-1.8203-4.5547c-1.8203 0.91016-3.6406 0-4.5547-1.8203-0.91016-0.91016 0-3.6406 1.8203-4.5547 1.8203 0 3.6406 0 4.5547 1.8203 0.91016 1.8203 0 3.6406-1.8203 4.5547zm30.047-8.1953c-2.7305 0-4.5547-0.91016-4.5547-2.7305 0-2.7305 0.91016-3.6406 2.7305-4.5547 1.8203 0 3.6406 0.91016 4.5547 2.7305 0 2.7305-0.91016 3.6406-2.7305 4.5547zm0 4.5547c-4.5547 0.91016-8.1953-2.7305-9.1055-7.2852-0.91016-4.5547 2.7305-8.1953 7.2852-9.1055 4.5547-0.91016 8.1953 2.7305 9.1055 7.2852 0.91016 4.5547-2.7305 8.1953-7.2852 9.1055zm-151.16 241.3c-14.57 0-26.406-11.836-26.406-26.406 0-14.57 11.836-26.406 26.406-26.406 14.57 0 25.496 11.836 25.496 26.406 0 14.57-10.926 26.406-25.496 26.406zm0-39.156c-7.2852 0-13.66 5.4648-13.66 12.746 0 7.2852 6.375 12.746 13.66 12.746 6.375 0 12.746-5.4648 12.746-12.746 0-7.2852-6.375-12.746-12.746-12.746zm66.473 39.156c-14.57 0-26.406-11.836-26.406-26.406 0-14.57 11.836-26.406 26.406-26.406 14.57 0 26.406 11.836 26.406 26.406 0 14.57-11.836 26.406-26.406 26.406zm0-39.156c-7.2852 0-13.66 5.4648-13.66 12.746 0 7.2852 6.375 12.746 13.66 12.746 7.2852 0 12.746-5.4648 12.746-12.746 0-7.2852-5.4648-12.746-12.746-12.746zm66.473 39.156c-14.57 0-26.406-11.836-26.406-26.406 0-14.57 11.836-26.406 26.406-26.406s26.406 11.836 26.406 26.406c0 14.57-11.836 26.406-26.406 26.406zm0-39.156c-7.2852 0-12.746 5.4648-12.746 12.746 0 7.2852 5.4648 12.746 12.746 12.746 7.2852 0 12.746-5.4648 12.746-12.746 0-7.2852-5.4648-12.746-12.746-12.746zm-132.94-18.211c-14.57 0-26.406-11.836-26.406-26.406 0-14.57 11.836-26.406 26.406-26.406 14.57 0 25.496 11.836 25.496 26.406 0 14.57-10.926 26.406-25.496 26.406zm0-39.156c-7.2852 0-13.66 5.4648-13.66 12.746 0 7.2852 6.375 12.746 13.66 12.746 6.375 0 12.746-5.4648 12.746-12.746 0-7.2852-6.375-12.746-12.746-12.746zm66.473 39.156c-14.57 0-26.406-11.836-26.406-26.406 0-14.57 11.836-26.406 26.406-26.406s26.406 11.836 26.406 26.406c0 14.57-11.836 26.406-26.406 26.406zm0-39.156c-7.2852 0-13.66 5.4648-13.66 12.746 0 7.2852 6.375 12.746 13.66 12.746s12.746-5.4648 12.746-12.746c0-7.2852-5.4648-12.746-12.746-12.746zm66.473 39.156c-14.57 0-26.406-11.836-26.406-26.406 0-14.57 11.836-26.406 26.406-26.406 14.57 0 26.406 11.836 26.406 26.406 0 14.57-11.836 26.406-26.406 26.406zm0-39.156c-7.2852 0-12.746 5.4648-12.746 12.746 0 7.2852 5.4648 12.746 12.746 12.746 7.2852 0 12.746-5.4648 12.746-12.746 0-7.2852-5.4648-12.746-12.746-12.746zm-132.94-18.211c-14.57 0-26.406-11.836-26.406-26.406 0-14.57 11.836-26.406 26.406-26.406s25.496 11.836 25.496 26.406c0 14.57-10.926 26.406-25.496 26.406zm0-39.156c-7.2852 0-13.66 5.4648-13.66 12.746 0 7.2852 6.375 12.746 13.66 12.746 6.375 0 12.746-5.4648 12.746-12.746 0-7.2852-6.375-12.746-12.746-12.746zm66.473 39.156c-14.57 0-26.406-11.836-26.406-26.406 0-14.57 11.836-26.406 26.406-26.406 14.57 0 26.406 11.836 26.406 26.406 0 14.57-11.836 26.406-26.406 26.406zm0-39.156c-7.2852 0-12.746 5.4648-12.746 12.746 0 7.2852 5.4648 12.746 12.746 12.746 7.2852 0 12.746-5.4648 12.746-12.746 0-7.2852-5.4648-12.746-12.746-12.746zm66.473 39.156c-14.57 0-26.406-11.836-26.406-26.406 0-14.57 11.836-26.406 26.406-26.406 14.57 0 26.406 11.836 26.406 26.406 0 14.57-11.836 26.406-26.406 26.406zm0-39.156c-7.2852 0-12.746 5.4648-12.746 12.746 0 7.2852 5.4648 12.746 12.746 12.746 7.2852 0 12.746-5.4648 12.746-12.746 0-7.2852-5.4648-12.746-12.746-12.746zm285.01-178.47c18.211 0 40.977 3.6406 40.977 28.227v39.156c0 25.496-21.855 28.227-40.977 28.227zm-208.52 99.254c3.6406 1.8203 9.1055 0 10.926-3.6406 1.8203-4.5547 0-9.1055-4.5547-10.926-3.6406-2.7305-9.1055-0.91016-10.926 3.6406-1.8203 4.5547 0 9.1055 4.5547 10.926zm1.8203-4.5547c1.8203 0.91016 3.6406 0 4.5547-1.8203 0.91016-0.91016 0-3.6406-1.8203-4.5547-1.8203 0-3.6406 0-4.5547 1.8203-0.91016 1.8203 0 3.6406 1.8203 4.5547zm-30.047-8.1953c2.7305 0 4.5547-0.91016 4.5547-2.7305 0-2.7305-0.91016-3.6406-2.7305-4.5547-1.8203 0-3.6406 0.91016-4.5547 2.7305 0 2.7305 0.91016 3.6406 2.7305 4.5547zm0 4.5547c4.5547 0.91016 8.1953-2.7305 9.1055-7.2852s-2.7305-8.1953-7.2852-9.1055c-4.5547-0.91016-8.1953 2.7305-9.1055 7.2852-0.91016 4.5547 2.7305 8.1953 7.2852 9.1055zm151.16 241.3c14.57 0 26.406-11.836 26.406-26.406 0-14.57-11.836-26.406-26.406-26.406-14.57 0-25.496 11.836-25.496 26.406 0 14.57 10.926 26.406 25.496 26.406zm0-39.156c7.2852 0 13.66 5.4648 13.66 12.746 0 7.2852-6.375 12.746-13.66 12.746-6.375 0-12.746-5.4648-12.746-12.746 0-7.2852 6.375-12.746 12.746-12.746zm-66.473 39.156c14.57 0 26.406-11.836 26.406-26.406 0-14.57-11.836-26.406-26.406-26.406s-26.406 11.836-26.406 26.406c0 14.57 11.836 26.406 26.406 26.406zm0-39.156c7.2852 0 13.66 5.4648 13.66 12.746 0 7.2852-6.375 12.746-13.66 12.746s-12.746-5.4648-12.746-12.746c0-7.2852 5.4648-12.746 12.746-12.746zm-66.473 39.156c14.57 0 26.406-11.836 26.406-26.406 0-14.57-11.836-26.406-26.406-26.406-14.57 0-26.406 11.836-26.406 26.406 0 14.57 11.836 26.406 26.406 26.406zm0-39.156c7.2852 0 12.746 5.4648 12.746 12.746 0 7.2852-5.4648 12.746-12.746 12.746-7.2852 0-12.746-5.4648-12.746-12.746 0-7.2852 5.4648-12.746 12.746-12.746zm132.94-18.211c14.57 0 26.406-11.836 26.406-26.406s-11.836-26.406-26.406-26.406-25.496 11.836-25.496 26.406 10.926 26.406 25.496 26.406zm0-39.156c7.2852 0 13.66 5.4648 13.66 12.746 0 7.2852-6.375 12.746-13.66 12.746-6.375 0-12.746-5.4648-12.746-12.746 0-7.2852 6.375-12.746 12.746-12.746zm-66.473 39.156c14.57 0 26.406-11.836 26.406-26.406s-11.836-26.406-26.406-26.406c-14.57 0-26.406 11.836-26.406 26.406s11.836 26.406 26.406 26.406zm0-39.156c7.2852 0 13.66 5.4648 13.66 12.746 0 7.2852-6.375 12.746-13.66 12.746s-12.746-5.4648-12.746-12.746c0-7.2852 5.4648-12.746 12.746-12.746zm-66.473 39.156c14.57 0 26.406-11.836 26.406-26.406s-11.836-26.406-26.406-26.406c-14.57 0-26.406 11.836-26.406 26.406s11.836 26.406 26.406 26.406zm0-39.156c7.2852 0 12.746 5.4648 12.746 12.746 0 7.2852-5.4648 12.746-12.746 12.746-7.2852 0-12.746-5.4648-12.746-12.746 0-7.2852 5.4648-12.746 12.746-12.746zm132.94-18.211c14.57 0 26.406-11.836 26.406-26.406 0-14.57-11.836-26.406-26.406-26.406-14.57 0-25.496 11.836-25.496 26.406 0 14.57 10.926 26.406 25.496 26.406zm0-39.156c7.2852 0 13.66 5.4648 13.66 12.746 0 7.2852-6.375 12.746-13.66 12.746-6.375 0-12.746-5.4648-12.746-12.746 0-7.2852 6.375-12.746 12.746-12.746zm-66.473 39.156c14.57 0 26.406-11.836 26.406-26.406 0-14.57-11.836-26.406-26.406-26.406-14.57 0-26.406 11.836-26.406 26.406 0 14.57 11.836 26.406 26.406 26.406zm0-39.156c7.2852 0 12.746 5.4648 12.746 12.746 0 7.2852-5.4648 12.746-12.746 12.746-7.2852 0-12.746-5.4648-12.746-12.746 0-7.2852 5.4648-12.746 12.746-12.746zm-66.473 39.156c14.57 0 26.406-11.836 26.406-26.406 0-14.57-11.836-26.406-26.406-26.406-14.57 0-26.406 11.836-26.406 26.406 0 14.57 11.836 26.406 26.406 26.406zm0-39.156c7.2852 0 12.746 5.4648 12.746 12.746 0 7.2852-5.4648 12.746-12.746 12.746-7.2852 0-12.746-5.4648-12.746-12.746 0-7.2852 5.4648-12.746 12.746-12.746z" fill-rule="evenodd"/>
  <use x="57.253906" y="573.660156" xlink:href="#w"/>
  <use x="60.59375" y="573.660156" xlink:href="#b"/>
  <use x="62.839844" y="573.660156" xlink:href="#c"/>
  <use x="65.925781" y="573.660156" xlink:href="#a"/>
  <use x="69" y="573.660156" xlink:href="#d"/>
  <use x="71.175781" y="573.660156" xlink:href="#c"/>
  <use x="74.261719" y="573.660156" xlink:href="#j"/>
  <use x="79.105469" y="573.660156" xlink:href="#i"/>
  <use x="82.367188" y="573.660156" xlink:href="#f"/>
  <use x="86.917969" y="573.660156" xlink:href="#a"/>
  <use x="89.992188" y="573.660156" xlink:href="#b"/>
  <use x="92.238281" y="573.660156" xlink:href="#f"/>
  <use x="95.203125" y="573.660156" xlink:href="#a"/>
  <use x="98.277344" y="573.660156" xlink:href="#h"/>
  <use x="102.484375" y="573.660156" xlink:href="#v"/>
  <use x="104.042969" y="573.660156" xlink:href="#b"/>
  <use x="106.289062" y="573.660156" xlink:href="#a"/>
  <use x="109.359375" y="573.660156" xlink:href="#b"/>
  <use x="111.605469" y="573.660156" xlink:href="#a"/>
  <use x="114.679688" y="573.660156" xlink:href="#g"/>
  <use x="116.238281" y="573.660156" xlink:href="#a"/>
  <use x="119.3125" y="573.660156" xlink:href="#u"/>
  <use x="122.480469" y="573.660156" xlink:href="#t"/>
  <use x="125.648438" y="573.660156" xlink:href="#s"/>
  <use x="57.253906" y="578.210938" xlink:href="#r"/>
  <use x="59.234375" y="578.210938" xlink:href="#b"/>
  <use x="61.476563" y="578.210938" xlink:href="#e"/>
  <use x="64.605469" y="578.210938" xlink:href="#q"/>
  <use x="70.933594" y="578.210938" xlink:href="#d"/>
  <use x="73.113281" y="578.210938" xlink:href="#p"/>
  <use x="76.351562" y="578.210938" xlink:href="#c"/>
  <use x="81.027344" y="578.210938" xlink:href="#o"/>
  <use x="84.835938" y="578.210938" xlink:href="#e"/>
  <use x="87.964844" y="578.210938" xlink:href="#n"/>
  <use x="91.203125" y="578.210938" xlink:href="#m"/>
  <use x="96.03125" y="578.210938" xlink:href="#l"/>
  <use x="99.367188" y="578.210938" xlink:href="#b"/>
  <use x="101.613281" y="578.210938" xlink:href="#e"/>
  <use x="104.742188" y="578.210938" xlink:href="#g"/>
  <use x="106.300781" y="578.210938" xlink:href="#c"/>
  <use x="109.390625" y="578.210938" xlink:href="#k"/>
  <use x="112.089844" y="578.210938" xlink:href="#d"/>
 </g>
</svg>
